<?xml version="1.0" standalone="no"?>
<!DOCTYPE svg PUBLIC "-//W3C//DTD SVG 20010904//EN"
 "http://www.w3.org/TR/2001/REC-SVG-20010904/DTD/svg10.dtd">
<svg version="1.0" xmlns="http://www.w3.org/2000/svg"
 width="271.000000pt" height="186.000000pt" viewBox="0 0 271.000000 186.000000"
 preserveAspectRatio="xMidYMid meet">

<g transform="translate(0.000000,186.000000) scale(0.100000,-0.100000)"
fill="#000000" stroke="none">
<path d="M0 930 l0 -930 1355 0 1355 0 0 930 0 930 -1355 0 -1355 0 0 -930z
m1702 881 c436 -89 771 -300 909 -572 34 -68 34 -69 14 -69 -9 0 -27 -7 -40
-16 -26 -17 -74 -16 -153 5 -48 13 -71 30 -64 49 5 16 -30 16 -47 -1 -11 -10
-11 -7 0 13 7 14 12 29 11 33 -1 4 -4 18 -6 30 -2 17 -10 22 -35 22 -22 0 -30
4 -26 13 12 31 -47 56 -73 30 -8 -8 -12 -8 -12 -1 0 6 -11 13 -25 15 -14 3
-25 1 -25 -4 0 -6 -11 -7 -26 -4 -15 4 -32 2 -40 -5 -8 -6 -14 -8 -14 -4 0 5
-9 0 -20 -10 -11 -10 -20 -24 -20 -30 0 -7 -10 -15 -21 -18 -16 -4 -20 -11
-16 -26 3 -14 0 -21 -9 -21 -17 0 -19 -57 -2 -62 6 -2 -13 -14 -42 -27 -43
-18 -54 -20 -61 -9 -6 9 -9 9 -9 1 0 -9 -12 -8 -44 4 -42 16 -47 16 -85 -1
-48 -22 -88 -17 -134 18 -18 13 -50 28 -72 32 -22 3 -66 20 -98 36 -50 26 -64
29 -105 23 -26 -4 -65 -17 -87 -30 -27 -16 -65 -25 -117 -30 -52 -4 -94 -15
-125 -31 -42 -21 -56 -24 -112 -18 -36 4 -83 15 -105 24 l-39 18 -21 -31 c-24
-36 -41 -34 -41 6 0 29 -4 32 -72 42 -22 4 -56 17 -74 31 -41 30 -91 31 -154
4 -52 -22 -90 -25 -131 -10 -22 9 -34 6 -68 -13 -22 -13 -54 -27 -70 -31 l-28
-7 37 68 c111 203 313 365 590 475 122 49 270 84 460 112 17 2 125 3 240 1
159 -3 234 -9 307 -24z m338 -532 c0 -6 -4 -7 -10 -4 -5 3 -10 11 -10 16 0 6
5 7 10 4 6 -3 10 -11 10 -16z m255 -69 c3 -5 1 -10 -4 -10 -6 0 -11 5 -11 10
0 6 2 10 4 10 3 0 8 -4 11 -10z m-2215 -114 c0 9 215 9 475 0 44 -1 63 -19 45
-42 -24 -28 15 -15 45 16 28 29 29 29 49 12 17 -14 18 -14 8 -1 -10 14 -10 18
3 23 9 3 13 2 10 -3 -3 -6 15 -9 42 -8 131 5 838 -16 844 -25 4 -5 9 -2 13 7
5 14 9 15 21 5 12 -10 15 -10 15 1 0 9 3 10 8 3 4 -6 49 -10 114 -9 59 0 113
-2 120 -5 7 -3 14 -16 16 -30 3 -28 18 -40 50 -40 22 0 32 -20 10 -20 -7 0
-20 -4 -27 -9 -22 -14 26 -52 57 -44 15 4 22 1 22 -10 0 -19 31 -31 41 -16 4
6 20 12 37 13 20 1 27 5 22 11 -6 7 -2 15 10 23 12 7 21 8 25 2 9 -15 27 -1
21 16 -3 8 0 11 9 8 16 -6 16 -25 0 -37 -6 -4 0 -10 13 -13 12 -4 22 -10 22
-15 0 -5 7 -9 15 -9 8 0 15 -4 15 -10 0 -5 -9 -10 -21 -10 -11 0 -18 -4 -15
-9 3 -4 -6 -6 -20 -3 -25 5 -26 4 -19 -42 7 -45 7 -46 -19 -46 -24 0 -26 3
-26 41 0 39 -1 40 -27 35 -16 -3 -55 -10 -89 -16 -33 -6 -85 -19 -115 -29 -30
-10 -92 -22 -139 -26 -170 -13 -226 -51 -159 -107 39 -33 -3 -30 484 -33 215
-1 423 -2 463 -3 l73 -2 -27 -50 -27 -50 -301 1 c-433 1 -704 14 -725 33 -10
9 -23 16 -29 16 -6 0 -16 8 -22 18 -9 15 -10 14 -5 -5 8 -27 -2 -29 -27 -6
-18 16 -18 16 -12 0 8 -21 0 -21 -34 0 -19 11 -15 5 12 -20 22 -21 48 -37 59
-37 10 0 21 -9 24 -20 3 -11 12 -21 19 -21 27 -3 32 -4 39 -11 4 -4 5 -15 1
-24 -6 -15 -8 -15 -31 0 -32 21 -56 21 -48 -1 5 -13 2 -15 -18 -8 -13 4 -41 9
-61 12 -33 5 -36 3 -31 -16 7 -28 -13 -27 -32 3 -9 13 -36 31 -61 41 -28 11
-50 27 -59 44 -12 24 -12 28 1 28 8 0 13 -6 10 -13 -3 -8 2 -12 13 -11 11 1
17 7 14 14 -6 15 3 15 32 3 l20 -9 -20 -1 c-44 -2 14 -21 70 -22 30 -1 55 -5
55 -8 0 -4 15 -7 33 -8 26 -1 29 1 14 9 -9 6 -22 7 -27 4 -6 -4 -9 -1 -8 6 2
6 -21 18 -52 28 -46 13 -55 20 -53 36 3 18 2 17 -9 -2 -6 -13 -17 -23 -25 -23
-8 0 -11 4 -8 10 3 5 0 8 -7 5 -39 -14 -549 -24 -588 -12 -18 6 -21 5 -10 -2
26 -18 3 -23 -90 -22 -61 1 -89 -2 -85 -9 3 -5 -1 -10 -9 -10 -9 0 -16 4 -16
9 0 5 -54 9 -122 8 -121 -1 -122 -1 -38 -7 l85 -6 -86 -2 c-66 -2 -89 2 -99
13 -10 13 -14 13 -27 0 -8 -8 -11 -21 -8 -27 4 -7 -8 3 -28 23 -29 30 -77 106
-77 124 0 3 62 5 138 5 177 0 356 16 409 35 28 11 60 37 98 81 59 66 98 94
135 94 11 0 20 5 20 11 0 5 3 8 8 6 4 -3 27 -1 52 4 41 7 39 7 -15 3 -33 -2
-77 -4 -98 -4 -26 1 -36 -3 -32 -11 6 -8 2 -8 -14 0 -12 7 -26 9 -31 6 -6 -3
-15 -3 -22 1 -19 12 -651 12 -667 0 -10 -8 -17 -5 -28 9 -16 22 -13 108 8 180
10 37 12 38 25 20 8 -10 14 -14 14 -9z m2592 -36 c3 0 9 -27 13 -59 8 -68 -2
-132 -16 -110 -7 11 -9 10 -9 -4 0 -10 -4 -16 -9 -13 -5 3 -79 6 -166 7 -86 0
-163 3 -171 6 -8 3 -14 13 -14 22 0 13 2 13 9 2 5 -8 16 -11 30 -6 21 6 22 7
4 22 -13 11 -14 13 -3 10 25 -8 53 20 52 50 -1 34 -5 55 -14 69 -6 9 34 10
294 4z m-437 -89 c3 -5 2 -12 -3 -15 -5 -3 -9 1 -9 9 0 17 3 19 12 6z m-1682
-438 c-7 -2 -19 -2 -25 0 -7 3 -2 5 12 5 14 0 19 -2 13 -5z m607 -98 c16 -8
34 -24 40 -35 10 -19 10 -20 -22 -6 -18 8 -45 17 -60 21 -32 6 -38 35 -8 35
12 0 34 -7 50 -15z m561 -15 c28 -16 23 -31 -8 -24 -53 11 -63 15 -63 25 0 12
47 12 71 -1z m-701 -23 c0 -8 6 -14 13 -15 70 -7 115 -15 132 -22 16 -7 95
-23 160 -32 6 -1 12 -12 13 -25 l2 -23 -40 20 c-48 25 -50 25 -50 0 0 -24 -9
-25 -36 -5 -10 8 -35 15 -56 15 -31 0 -35 -3 -31 -20 7 -28 -13 -25 -33 4 -8
14 -31 30 -50 36 -33 11 -95 58 -80 61 3 1 10 2 15 3 5 0 13 4 17 9 12 11 24
8 24 -6z m777 -10 c11 -19 43 -29 44 -14 0 7 4 3 8 -8 11 -27 4 -37 -19 -25
-27 14 -50 12 -44 -4 4 -10 -6 -12 -45 -8 -48 4 -50 4 -44 -19 l6 -24 -22 20
c-13 11 -41 27 -64 35 -22 8 -42 20 -44 27 -6 17 29 21 55 5 12 -8 22 -10 22
-5 0 4 30 6 66 3 36 -3 68 -2 71 2 2 5 -1 7 -8 6 -6 -2 -14 3 -16 10 -6 16 24
16 34 -1z m-529 -24 c5 -18 -10 -16 -34 2 -18 15 -18 15 5 13 14 -2 26 -9 29
-15z m-529 -74 c17 -6 31 -17 31 -25 0 -10 -6 -11 -25 -4 -16 6 -25 6 -25 -1
0 -5 7 -12 15 -15 23 -9 18 -26 -7 -22 -28 4 -35 -18 -9 -27 23 -7 29 -25 9
-25 -7 1 -25 6 -39 13 l-27 12 20 53 c12 28 22 52 23 52 1 0 16 -5 34 -11z
m1310 -23 c15 -32 3 -72 -24 -83 -23 -8 -33 7 -12 18 23 14 22 28 -3 22 -24
-6 -50 13 -50 36 0 48 66 54 89 7z m-115 -5 c3 -5 -3 -11 -14 -14 -29 -7 -25
-25 5 -20 19 4 27 0 36 -21 15 -31 -1 -56 -36 -56 -43 0 -70 67 -40 100 19 21
40 26 49 11z m-1113 -31 c26 -15 24 -33 -3 -25 -21 6 -22 5 -5 -8 23 -19 22
-44 -3 -52 -23 -7 -63 12 -55 26 4 5 15 5 28 -2 21 -12 21 -11 5 8 -21 23 -22
35 -6 51 15 15 15 15 39 2z m76 -10 c3 -11 10 -20 17 -20 6 0 0 -9 -14 -20
-21 -16 -23 -22 -13 -38 15 -25 6 -34 -18 -21 -15 7 -18 18 -15 47 7 67 31 97
43 52z m942 6 c7 -8 14 -29 17 -48 7 -40 -23 -75 -53 -63 -16 6 -16 8 5 18 24
11 31 30 7 21 -38 -15 -63 55 -27 75 24 14 38 13 51 -3z m-782 -35 c3 -11 13
-21 24 -24 19 -5 25 -39 13 -71 -6 -16 -68 -23 -77 -8 -3 4 0 33 5 65 10 57
25 74 35 38z m674 -26 c7 -26 17 -45 25 -45 29 0 13 -19 -21 -26 -38 -7 -58 2
-36 15 14 9 6 51 -12 63 -7 4 -6 12 2 22 21 25 30 19 42 -29z m-741 10 c9 -11
10 -25 3 -48 -8 -28 -13 -32 -38 -29 -17 2 -34 8 -40 13 -14 14 7 42 36 50 24
7 24 7 2 8 -13 1 -23 6 -23 11 0 16 46 12 60 -5z m166 -22 c-3 -21 -6 -48 -6
-60 0 -15 -6 -23 -16 -23 -14 0 -16 8 -10 46 3 26 6 53 6 60 0 8 7 14 16 14
14 0 15 -7 10 -37z m54 16 c0 -5 -7 -9 -15 -9 -15 0 -20 12 -9 23 8 8 24 -1
24 -14z m384 4 c3 -10 6 -36 8 -57 3 -36 0 -40 -26 -47 -39 -11 -58 6 -54 45
2 21 10 34 26 41 12 5 20 16 17 22 -2 7 2 13 10 13 7 0 16 -8 19 -17z m-247
-12 c3 -11 11 -17 17 -15 20 8 38 -22 34 -58 -4 -42 -22 -43 -26 0 -4 41 -20
42 -24 0 -2 -17 -9 -33 -15 -36 -10 -3 -13 14 -13 62 0 41 4 66 11 66 6 0 13
-9 16 -19z m-137 -43 c0 -37 -13 -63 -27 -55 -14 9 -3 87 13 87 9 0 14 -11 14
-32z m88 13 c3 -9 -2 -11 -19 -7 l-24 7 23 -17 c12 -9 22 -22 22 -30 0 -18
-29 -33 -51 -27 -28 8 -24 32 4 27 l22 -5 -22 10 c-22 10 -31 40 -16 55 12 11
56 2 61 -13z m200 -8 c3 -19 -1 -23 -22 -23 -14 0 -26 -5 -26 -11 0 -7 10 -9
25 -7 17 4 25 1 25 -8 0 -17 -51 -19 -68 -2 -16 16 -15 51 0 66 21 21 63 10
66 -15z"/>
<path d="M1401 1783 c9 -2 22 -23 28 -46 41 -139 54 -177 60 -177 4 0 17 19
28 43 l21 42 13 -47 c7 -27 16 -48 19 -48 3 0 32 45 64 100 33 54 66 101 75
103 9 3 -6 5 -34 5 -31 0 -42 -3 -29 -6 22 -7 21 -8 -16 -82 -24 -48 -40 -70
-44 -60 -27 72 -27 70 -1 110 30 47 30 50 6 50 -10 0 -19 -6 -18 -12 2 -54
-17 -66 -28 -18 -4 20 -14 31 -28 34 -30 6 -136 15 -116 9z m117 -71 c12 -44
13 -57 2 -80 -13 -27 -13 -26 -36 48 -29 92 -29 92 -2 88 17 -2 25 -15 36 -56z"/>
<path d="M1163 1760 c-40 -24 -53 -48 -53 -100 0 -33 6 -48 29 -71 25 -24 38
-29 80 -29 38 0 55 5 73 23 13 12 17 17 8 11 -47 -35 -113 -27 -135 16 -26 50
-16 129 19 152 14 10 59 10 81 2 10 -4 24 -21 32 -38 l14 -31 -6 35 c-3 18
-11 38 -18 42 -23 14 -92 8 -124 -12z"/>
<path d="M976 1742 c-3 -5 -18 -7 -32 -4 -19 3 -25 1 -20 -7 4 -6 13 -11 21
-11 7 0 23 -12 34 -26 l20 -25 -6 38 c-7 44 -9 48 -17 35z"/>
<path d="M843 1695 c-33 -33 -35 -38 -31 -87 7 -69 39 -98 106 -98 51 0 85 18
103 53 l10 22 -18 -22 c-64 -78 -163 -31 -165 78 0 42 14 66 47 79 18 8 18 9
2 9 -11 1 -35 -15 -54 -34z"/>
<path d="M1806 1716 c3 -8 -6 -53 -21 -100 -19 -64 -30 -86 -43 -87 -9 0 3 -7
28 -14 24 -8 46 -12 49 -10 2 3 -1 5 -7 5 -7 0 -12 7 -12 16 0 23 41 157 52
171 7 9 3 16 -17 23 -34 13 -35 13 -29 -4z"/>
<path d="M1892 1694 c33 -17 46 -57 27 -80 -9 -12 -24 -15 -51 -11 -43 6 -43
8 -8 -83 16 -40 21 -45 51 -47 19 -1 27 1 18 3 -9 3 -26 28 -37 57 l-19 52 33
3 c73 7 79 78 9 108 -44 18 -58 17 -23 -2z"/>
<path d="M660 1657 c0 -9 -7 -17 -16 -17 -28 0 -73 -33 -85 -62 -9 -23 -8 -32
6 -54 16 -25 20 -26 69 -20 97 13 101 13 104 -11 2 -13 -5 -27 -20 -37 -26
-19 -108 -22 -108 -4 0 6 -2 9 -5 6 -6 -5 22 -78 30 -78 3 0 4 5 2 12 -1 6 13
15 31 19 45 9 82 46 82 80 0 54 -42 71 -121 48 -30 -9 -42 -9 -54 1 -20 17
-19 25 6 48 30 29 78 36 101 15 18 -16 18 -15 2 23 -19 47 -24 53 -24 31z"/>
<path d="M2100 1620 c13 -8 8 -23 -29 -96 -35 -69 -47 -85 -62 -81 -31 8 -22
0 34 -27 28 -15 44 -20 34 -13 -17 14 -17 16 0 51 13 29 22 36 38 32 18 -4 18
-3 3 7 -15 10 -15 14 3 48 10 21 24 41 30 44 6 5 -2 15 -20 26 -32 19 -59 27
-31 9z"/>
<path d="M2182 1579 c28 -16 39 -44 28 -73 -7 -21 -16 -26 -42 -26 -25 0 -29
-3 -18 -10 41 -26 100 2 100 47 0 22 -52 73 -73 73 -7 0 -4 -5 5 -11z"/>
<path d="M973 1457 c32 -27 33 -35 10 -54 -11 -9 -12 -12 -3 -7 8 4 23 14 33
22 12 10 17 11 17 3 0 -7 5 -9 12 -5 8 5 9 2 5 -10 -4 -10 -3 -15 3 -11 18 11
10 23 -37 54 -54 36 -81 41 -40 8z"/>
<path d="M1045 1326 c31 -25 46 -26 26 -2 -6 7 -22 16 -34 20 -18 4 -17 2 8
-18z"/>
<path d="M660 1270 c-12 -7 -10 -9 7 -7 12 0 19 5 17 9 -6 10 -6 10 -24 -2z"/>
<path d="M755 1270 c3 -4 14 -10 25 -13 11 -3 18 -2 15 3 -3 4 -14 10 -25 13
-11 3 -18 2 -15 -3z"/>
<path d="M1002 1249 c-18 -11 -31 -15 -27 -9 3 5 2 10 -3 10 -6 0 -19 -16 -31
-35 -29 -50 -5 -46 56 10 53 49 54 53 5 24z"/>
<path d="M40 915 c0 -8 4 -15 8 -15 5 0 9 7 9 15 0 8 -4 15 -9 15 -4 0 -8 -7
-8 -15z"/>
<path d="M158 553 c7 -3 16 -2 19 1 4 3 -2 6 -13 5 -11 0 -14 -3 -6 -6z"/>
<path d="M2488 903 c7 -3 16 -2 19 1 4 3 -2 6 -13 5 -11 0 -14 -3 -6 -6z"/>
<path d="M1992 266 c1 -10 8 -17 13 -17 15 1 12 24 -3 29 -9 3 -13 -2 -10 -12z"/>
<path d="M1912 189 c2 -7 10 -15 17 -17 8 -3 12 1 9 9 -2 7 -10 15 -17 17 -8
3 -12 -1 -9 -9z"/>
<path d="M1800 195 c0 -8 7 -15 15 -15 9 0 12 6 9 15 -4 8 -10 15 -15 15 -5 0
-9 -7 -9 -15z"/>
<path d="M1048 125 c-4 -17 -1 -25 8 -25 8 0 14 11 14 25 0 14 -4 25 -9 25 -5
0 -11 -11 -13 -25z"/>
<path d="M940 130 c0 -5 5 -10 10 -10 6 0 10 5 10 10 0 6 -4 10 -10 10 -5 0
-10 -4 -10 -10z"/>
<path d="M1557 133 c-11 -10 -8 -43 3 -43 6 0 10 11 10 25 0 26 -2 29 -13 18z"/>
</g>
</svg>
