<?xml version="1.0" standalone="no"?>
<!DOCTYPE svg PUBLIC "-//W3C//DTD SVG 20010904//EN"
 "http://www.w3.org/TR/2001/REC-SVG-20010904/DTD/svg10.dtd">
<svg version="1.0" xmlns="http://www.w3.org/2000/svg"
 width="126.000000pt" height="126.000000pt" viewBox="0 0 126.000000 126.000000"
 preserveAspectRatio="xMidYMid meet">

<g transform="translate(0.000000,126.000000) scale(0.100000,-0.100000)"
fill="#000000" stroke="none">
<path d="M548 1243 c12 -2 32 -2 45 0 12 2 2 4 -23 4 -25 0 -35 -2 -22 -4z"/>
<path d="M668 1243 c12 -2 30 -2 40 0 9 3 -1 5 -23 4 -22 0 -30 -2 -17 -4z"/>
<path d="M498 1233 c7 -3 16 -2 19 1 4 3 -2 6 -13 5 -11 0 -14 -3 -6 -6z"/>
<path d="M748 1233 c7 -3 16 -2 19 1 4 3 -2 6 -13 5 -11 0 -14 -3 -6 -6z"/>
<path d="M380 1200 c-8 -5 -10 -10 -5 -10 6 0 17 5 25 10 8 5 11 10 5 10 -5 0
-17 -5 -25 -10z"/>
<path d="M627 1190 c-12 -18 -16 -19 -27 -5 -7 8 -17 15 -23 15 -5 0 -3 -8 6
-18 10 -10 17 -26 17 -35 0 -28 14 -19 32 20 20 42 17 54 -5 23z"/>
<path d="M860 1200 c8 -5 20 -10 25 -10 6 0 3 5 -5 10 -8 5 -19 10 -25 10 -5
0 -3 -5 5 -10z"/>
<path d="M495 1191 c-28 -6 -28 -7 -7 -13 15 -4 22 -14 22 -32 0 -14 5 -26 11
-26 6 0 9 13 7 30 -2 19 3 34 12 40 13 9 13 10 0 9 -8 -1 -28 -4 -45 -8z"/>
<path d="M716 1185 c-19 -19 -19 -21 -6 -45 21 -39 100 -32 100 9 0 38 -66 63
-94 36z m69 -30 c0 -25 -37 -32 -54 -11 -18 21 -4 38 27 34 19 -2 27 -9 27
-23z"/>
<path d="M303 1160 c-18 -11 -33 -22 -33 -25 0 -2 16 5 35 16 19 12 35 23 35
25 0 6 -3 5 -37 -16z"/>
<path d="M920 1176 c0 -3 9 -10 20 -16 11 -6 20 -8 20 -6 0 3 -9 10 -20 16
-11 6 -20 8 -20 6z"/>
<path d="M433 1135 c6 -19 14 -35 19 -35 11 0 10 13 -2 44 -15 40 -30 32 -17
-9z"/>
<path d="M837 1125 c-9 -19 -13 -35 -7 -35 5 0 12 5 15 10 4 7 13 7 26 0 24
-13 25 -2 2 16 -24 17 -7 32 17 16 11 -7 20 -8 20 -4 0 7 -42 32 -54 32 -1 0
-10 -16 -19 -35z"/>
<path d="M990 1130 c62 -54 88 -79 124 -120 21 -25 29 -31 18 -14 -27 40 -97
109 -136 135 l-31 21 25 -22z"/>
<path d="M343 1133 c-7 -2 -13 -14 -13 -25 0 -16 5 -19 25 -16 31 6 45 -11 16
-19 -12 -3 -21 -9 -21 -14 0 -14 16 -10 40 9 27 22 19 44 -13 41 -38 -3 -43 1
-17 16 23 13 10 20 -17 8z"/>
<path d="M229 1103 l-24 -28 28 24 c25 23 32 31 24 31 -2 0 -14 -12 -28 -27z"/>
<path d="M530 1076 c-30 -6 -77 -22 -105 -36 -68 -33 -175 -141 -208 -212 -86
-181 -47 -388 99 -528 139 -133 337 -166 512 -83 73 34 178 139 214 214 135
280 -44 605 -359 654 -35 6 -43 4 -43 -9 0 -24 37 -56 65 -56 30 0 32 -11 4
-36 -16 -14 -20 -28 -17 -56 2 -21 2 -38 0 -38 -2 0 -17 8 -33 17 -27 16 -31
16 -58 0 -39 -23 -40 -22 -34 21 4 29 0 41 -16 56 -27 25 -27 36 2 36 28 0 41
9 56 37 20 38 14 40 -79 19z m-20 -96 c-37 -12 -92 -12 -85 0 3 6 30 10 58 9
41 -1 47 -3 27 -9z m325 0 c7 -12 -48 -12 -85 0 -20 6 -14 8 27 9 28 1 55 -3
58 -9z m-280 -29 c-14 -12 -254 -83 -267 -79 -6 2 45 23 113 45 122 41 173 52
154 34z m300 -35 c72 -25 124 -45 116 -45 -20 -1 -254 70 -265 80 -20 18 22 8
149 -35z m-324 -27 c-20 -17 -20 -17 32 -23 69 -8 74 -8 131 1 44 7 47 10 33
22 -10 7 -17 20 -17 28 0 10 12 4 37 -16 30 -25 47 -31 85 -31 27 0 48 -4 48
-9 0 -5 18 -12 40 -16 l40 -7 0 -57 0 -58 55 -44 c30 -24 52 -45 50 -47 -4 -5
-27 9 -77 48 l-28 22 0 -76 c0 -63 3 -76 16 -76 12 0 15 -6 11 -21 -4 -16 -3
-18 8 -9 15 13 25 -7 25 -51 0 -43 -35 -61 -117 -60 -48 0 -64 -2 -53 -9 8 -6
27 -7 43 -4 22 5 27 2 27 -15 0 -19 -7 -21 -127 -24 l-128 -3 133 -2 132 -2 0
25 c0 16 6 25 15 25 10 0 15 -11 15 -35 l0 -35 -48 0 c-41 0 -53 -5 -78 -31
-60 -63 -157 -92 -230 -69 -59 19 -112 62 -165 136 -83 113 -109 122 -109 39
l0 -55 54 0 c30 0 58 -4 61 -10 4 -6 -22 -10 -69 -10 l-76 0 0 39 c0 30 -4 40
-20 44 -22 6 -28 37 -7 37 9 0 8 3 -2 9 -16 10 -7 64 16 86 21 22 82 18 127
-8 22 -12 59 -47 83 -77 72 -90 112 -130 130 -129 15 0 15 1 -2 8 -21 9 -94
88 -85 94 3 1 -11 17 -30 35 -30 27 -33 33 -20 43 12 9 12 10 -4 5 -10 -4 -25
-1 -34 6 -13 11 -11 14 9 19 20 6 18 7 -13 8 -69 2 -68 -1 -70 150 l-2 136 -3
-132 c-3 -109 -6 -133 -18 -133 -12 0 -15 23 -17 128 l-2 127 -3 -127 c-3
-103 -6 -128 -18 -128 -10 0 -15 17 -17 66 l-3 66 -52 -42 c-29 -23 -53 -37
-53 -32 0 5 25 29 55 53 l55 44 0 57 0 56 40 7 c22 4 40 11 40 16 0 5 22 9 48
9 38 0 55 6 82 29 20 16 37 24 39 18 2 -6 -6 -18 -18 -28z m-160 -475 c4 -19
7 -22 8 -9 1 19 3 18 21 -5 28 -35 25 -40 -20 -40 l-40 0 0 46 c0 52 21 57 31
8z"/>
<path d="M434 805 c-4 -14 -4 -29 0 -32 3 -4 6 5 7 18 l0 24 10 -24 c5 -13 12
-22 14 -19 6 6 -12 58 -20 58 -2 0 -7 -11 -11 -25z"/>
<path d="M880 667 l-5 -167 50 1 c28 1 40 4 28 6 -22 4 -23 8 -26 161 l-3 157
-2 -157 c-2 -132 -4 -158 -17 -158 -12 0 -15 27 -17 163 l-3 162 -5 -168z"/>
<path d="M728 803 c7 -3 16 -2 19 1 4 3 -2 6 -13 5 -11 0 -14 -3 -6 -6z"/>
<path d="M538 773 c6 -2 18 -2 25 0 6 3 1 5 -13 5 -14 0 -19 -2 -12 -5z"/>
<path d="M708 773 c6 -2 18 -2 25 0 6 3 1 5 -13 5 -14 0 -19 -2 -12 -5z"/>
<path d="M758 773 c6 -2 18 -2 25 0 6 3 1 5 -13 5 -14 0 -19 -2 -12 -5z"/>
<path d="M478 673 c6 -2 18 -2 25 0 6 3 1 5 -13 5 -14 0 -19 -2 -12 -5z"/>
<path d="M538 673 c6 -2 18 -2 25 0 6 3 1 5 -13 5 -14 0 -19 -2 -12 -5z"/>
<path d="M703 673 c9 -2 23 -2 30 0 6 3 -1 5 -18 5 -16 0 -22 -2 -12 -5z"/>
<path d="M758 673 c6 -2 18 -2 25 0 6 3 1 5 -13 5 -14 0 -19 -2 -12 -5z"/>
<path d="M443 643 c9 -2 25 -2 35 0 9 3 1 5 -18 5 -19 0 -27 -2 -17 -5z"/>
<path d="M508 643 c6 -2 18 -2 25 0 6 3 1 5 -13 5 -14 0 -19 -2 -12 -5z"/>
<path d="M728 643 c6 -2 18 -2 25 0 6 3 1 5 -13 5 -14 0 -19 -2 -12 -5z"/>
<path d="M783 643 c9 -2 25 -2 35 0 9 3 1 5 -18 5 -19 0 -27 -2 -17 -5z"/>
<path d="M478 573 c6 -2 18 -2 25 0 6 3 1 5 -13 5 -14 0 -19 -2 -12 -5z"/>
<path d="M688 573 c7 -3 16 -2 19 1 4 3 -2 6 -13 5 -11 0 -14 -3 -6 -6z"/>
<path d="M758 573 c6 -2 18 -2 25 0 6 3 1 5 -13 5 -14 0 -19 -2 -12 -5z"/>
<path d="M513 543 c9 -2 23 -2 30 0 6 3 -1 5 -18 5 -16 0 -22 -2 -12 -5z"/>
<path d="M672 530 c-15 -24 -15 -30 -1 -30 5 0 7 5 4 10 -3 6 1 13 9 16 9 3
16 10 16 15 0 16 -15 10 -28 -11z"/>
<path d="M723 543 c9 -2 25 -2 35 0 9 3 1 5 -18 5 -19 0 -27 -2 -17 -5z"/>
<path d="M780 541 c0 -10 41 -23 49 -16 2 3 -2 5 -10 5 -11 0 -11 2 1 10 12 8
9 10 -12 10 -16 0 -28 -4 -28 -9z"/>
<path d="M360 511 c-14 -27 -13 -34 4 -19 8 7 12 16 10 20 -2 3 2 9 8 11 10 4
10 6 1 6 -7 1 -17 -8 -23 -18z"/>
<path d="M533 513 c9 -2 23 -2 30 0 6 3 -1 5 -18 5 -16 0 -22 -2 -12 -5z"/>
<path d="M424 502 c4 -7 2 -20 -6 -30 -12 -16 -11 -16 7 -2 11 8 21 15 23 16
1 1 -5 7 -15 15 -12 10 -15 10 -9 1z"/>
<path d="M684 488 c-4 -7 -14 -23 -21 -34 -13 -21 -13 -22 29 -17 28 3 58 -1
82 -11 21 -9 44 -16 50 -15 28 1 -83 38 -117 38 l-37 1 16 25 c9 14 14 25 11
25 -3 0 -9 -6 -13 -12z"/>
<path d="M731 484 c0 -11 3 -14 6 -6 3 7 2 16 -1 19 -3 4 -6 -2 -5 -13z"/>
<path d="M813 474 c-3 -8 -2 -19 3 -24 5 -5 9 1 9 16 0 28 -3 30 -12 8z"/>
<path d="M955 480 c-11 -5 -15 -9 -8 -9 6 -1 13 -9 15 -18 3 -13 6 -10 10 10
3 15 5 27 4 26 0 0 -10 -4 -21 -9z"/>
<path d="M882 455 c0 -16 2 -22 5 -12 2 9 2 23 0 30 -3 6 -5 -1 -5 -18z"/>
<path d="M298 463 c7 -3 16 -2 19 1 4 3 -2 6 -13 5 -11 0 -14 -3 -6 -6z"/>
<path d="M467 437 c-3 -8 1 -14 8 -14 7 0 11 6 8 14 -3 7 -6 13 -8 13 -2 0 -5
-6 -8 -13z"/>
<path d="M476 392 c-3 -6 1 -13 10 -16 8 -3 12 -11 8 -17 -4 -8 -3 -9 5 -5 9
6 9 12 -1 24 -7 10 -13 18 -14 20 -1 2 -5 -1 -8 -6z"/>
<path d="M688 383 c7 -3 16 -2 19 1 4 3 -2 6 -13 5 -11 0 -14 -3 -6 -6z"/>
<path d="M516 341 c-15 -17 -15 -19 1 -32 17 -13 17 -13 3 5 -13 18 -13 19 0
14 11 -4 16 0 16 13 0 23 1 23 -20 0z"/>
<path d="M658 323 c7 -3 16 -2 19 1 4 3 -2 6 -13 5 -11 0 -14 -3 -6 -6z"/>
<path d="M595 308 c4 -11 2 -18 -4 -18 -6 0 -11 -5 -11 -12 0 -8 6 -6 17 5 14
14 15 19 4 29 -10 11 -11 10 -6 -4z"/>
<path d="M721 290 c14 -31 19 -36 19 -24 0 6 -7 19 -16 30 -14 18 -14 18 -3
-6z"/>
<path d="M755 301 c-6 -11 13 -26 22 -17 4 3 1 6 -6 6 -7 0 -9 5 -6 10 3 6 4
10 1 10 -3 0 -7 -4 -11 -9z"/>
<path d="M620 287 c0 -10 8 -17 18 -17 9 0 13 4 7 8 -5 4 -13 11 -17 16 -5 5
-8 2 -8 -7z"/>
<path d="M690 291 c0 -6 4 -13 10 -16 6 -3 7 1 4 9 -7 18 -14 21 -14 7z"/>
<path d="M249 1061 l-24 -19 24 -26 c29 -31 41 -33 34 -5 -5 17 -2 19 21 13
16 -4 26 -2 26 5 0 6 -7 11 -15 11 -9 0 -15 7 -13 17 4 25 -25 27 -53 4z m34
-22 c-17 -17 -37 -1 -22 17 8 10 15 12 23 4 7 -7 7 -13 -1 -21z"/>
<path d="M952 1068 c-17 -17 -15 -42 6 -61 26 -24 39 -21 17 3 -20 22 -14 50
11 50 9 0 23 -8 30 -17 7 -10 14 -13 14 -6 1 33 -54 55 -78 31z"/>
<path d="M149 1023 l-24 -28 28 24 c25 23 32 31 24 31 -2 0 -14 -12 -28 -27z"/>
<path d="M615 1029 c-4 -12 -2 -26 4 -32 8 -8 11 -2 11 21 0 37 -6 41 -15 11z"/>
<path d="M645 1000 c-8 -13 15 -13 35 0 12 8 11 10 -7 10 -12 0 -25 -4 -28
-10z"/>
<path d="M167 975 c-18 -25 -18 -25 10 -49 30 -26 44 -22 65 18 11 21 11 21
-11 2 -22 -20 -43 -14 -23 6 21 21 13 32 -8 13 -26 -24 -39 -11 -15 15 10 11
14 20 9 20 -5 0 -17 -12 -27 -25z"/>
<path d="M570 995 c0 -10 29 -24 34 -17 3 6 -3 12 -14 15 -11 3 -20 4 -20 2z"/>
<path d="M113 978 c-15 -20 -25 -38 -20 -38 3 0 12 11 21 25 17 26 16 35 -1
13z"/>
<path d="M1015 970 c-15 -6 -16 -9 -4 -9 15 -1 32 -26 42 -61 2 -9 12 0 25 26
12 23 18 44 15 48 -9 8 -54 6 -78 -4z m52 -27 c-3 -3 -11 -2 -17 2 -9 6 -9 10
1 16 14 8 27 -7 16 -18z"/>
<path d="M605 944 c-16 -25 -16 -25 4 -14 12 6 21 17 21 25 0 21 -5 19 -25
-11z"/>
<path d="M651 953 c7 -10 15 -20 16 -22 2 -2 3 5 3 17 0 14 -6 22 -16 22 -14
0 -15 -3 -3 -17z"/>
<path d="M1160 940 c6 -11 13 -20 16 -20 2 0 0 9 -6 20 -6 11 -13 20 -16 20
-2 0 0 -9 6 -20z"/>
<path d="M130 909 c0 -9 7 -22 15 -29 24 -20 18 -33 -15 -27 -16 4 -32 2 -35
-3 -4 -6 13 -10 39 -10 53 0 57 11 21 55 -17 21 -25 25 -25 14z"/>
<path d="M1105 893 c-17 -9 -31 -17 -33 -18 -2 -2 4 -16 13 -32 16 -28 16 -28
11 -2 -5 21 0 28 26 41 17 8 27 17 22 20 -5 4 -23 -1 -39 -9z"/>
<path d="M1190 885 c0 -5 5 -17 10 -25 5 -8 10 -10 10 -5 0 6 -5 17 -10 25 -5
8 -10 11 -10 5z"/>
<path d="M1121 809 c-13 -5 -21 -12 -18 -15 8 -8 65 5 72 17 8 12 -23 11 -54
-2z"/>
<path d="M80 802 c0 -11 61 -32 73 -25 6 4 -5 12 -24 19 -42 15 -49 16 -49 6z"/>
<path d="M21 764 c0 -11 3 -14 6 -6 3 7 2 16 -1 19 -3 4 -6 -2 -5 -13z"/>
<path d="M1231 754 c0 -11 3 -14 6 -6 3 7 2 16 -1 19 -3 4 -6 -2 -5 -13z"/>
<path d="M1120 750 c0 -5 7 -10 15 -10 8 0 15 -9 15 -20 0 -11 4 -20 9 -20 5
0 7 9 4 20 -4 14 0 20 10 20 9 0 18 -10 20 -22 3 -17 5 -14 6 10 1 31 0 32
-39 32 -22 0 -40 -4 -40 -10z"/>
<path d="M85 726 l29 -12 -32 -19 c-43 -26 -40 -42 8 -47 22 -2 40 0 40 4 0 5
-11 8 -25 8 -33 0 -32 12 5 33 45 27 39 47 -12 47 l-43 -1 30 -13z"/>
<path d="M12 700 c0 -19 2 -27 5 -17 2 9 2 25 0 35 -3 9 -5 1 -5 -18z"/>
<path d="M1243 685 c0 -22 2 -30 4 -17 2 12 2 30 0 40 -3 9 -5 -1 -4 -23z"/>
<path d="M1141 656 c-31 -37 9 -103 47 -80 36 23 23 94 -18 94 -10 0 -23 -6
-29 -14z m53 -21 c8 -22 -4 -45 -24 -45 -20 0 -32 23 -24 45 4 8 14 15 24 15
10 0 20 -7 24 -15z"/>
<path d="M55 600 c-4 -6 8 -10 30 -10 32 0 36 -3 33 -22 -2 -17 -11 -24 -30
-26 -37 -4 -36 -22 2 -22 37 0 54 28 40 64 -7 20 -17 26 -39 26 -16 0 -33 -4
-36 -10z"/>
<path d="M1243 570 c0 -25 2 -35 4 -22 2 12 2 32 0 45 -2 12 -4 2 -4 -23z"/>
<path d="M12 560 c0 -19 2 -27 5 -17 2 9 2 25 0 35 -3 9 -5 1 -5 -18z"/>
<path d="M1125 539 c-4 -5 1 -9 9 -9 23 0 20 -21 -4 -27 -11 -3 -20 -10 -20
-15 0 -5 6 -8 13 -5 6 2 17 -3 23 -11 15 -21 40 -9 48 23 4 15 5 29 3 31 -11
12 -67 22 -72 13z m58 -25 c8 -8 -3 -34 -14 -34 -5 0 -9 9 -9 20 0 19 11 26
23 14z"/>
<path d="M1232 500 c0 -14 2 -19 5 -12 2 6 2 18 0 25 -3 6 -5 1 -5 -13z"/>
<path d="M21 494 c0 -11 3 -14 6 -6 3 7 2 16 -1 19 -3 4 -6 -2 -5 -13z"/>
<path d="M150 466 c0 -4 5 -16 10 -27 14 -25 -7 -26 -25 -2 -12 16 -12 14 -8
-10 7 -35 -13 -36 -21 -1 -4 15 -10 24 -13 21 -3 -4 0 -20 7 -37 9 -23 17 -29
29 -24 9 3 24 9 34 11 14 5 17 12 12 32 -6 25 -25 53 -25 37z"/>
<path d="M1104 435 c11 -8 24 -15 29 -15 4 0 5 -4 2 -10 -3 -5 -14 -10 -24
-10 -9 0 -26 -6 -36 -14 -18 -13 -17 -14 13 -30 36 -19 42 -20 42 -6 0 6 -6
10 -14 10 -29 0 -27 20 3 26 17 4 36 12 42 20 8 10 3 16 -26 29 -46 19 -56 19
-31 0z"/>
<path d="M1196 395 c-9 -26 -7 -32 5 -12 6 10 9 21 6 23 -2 3 -7 -2 -11 -11z"/>
<path d="M167 362 c-28 -17 -38 -38 -13 -29 23 9 42 -21 28 -44 -15 -23 -10
-24 28 -4 33 17 41 40 11 30 -27 -8 -49 30 -25 43 9 5 12 12 8 15 -5 3 -22 -2
-37 -11z"/>
<path d="M1036 331 c-3 -4 8 -18 24 -29 31 -24 40 -27 40 -14 0 13 -58 53 -64
43z"/>
<path d="M1151 304 c-12 -19 -16 -32 -11 -29 11 7 43 65 36 65 -2 0 -13 -16
-25 -36z"/>
<path d="M100 301 c5 -11 15 -23 21 -27 6 -3 3 5 -6 20 -20 30 -30 35 -15 7z"/>
<path d="M1016 302 c-4 -7 -4 -12 0 -12 4 0 -1 -9 -11 -20 -10 -12 -25 -18
-32 -16 -7 3 -15 1 -18 -4 -8 -12 73 -36 84 -24 4 5 3 27 -4 48 -7 24 -14 35
-19 28z m13 -61 c-3 -6 -10 -7 -18 -2 -7 5 -10 14 -6 21 9 14 29 -2 24 -19z"/>
<path d="M250 255 c-18 -19 -26 -22 -37 -14 -27 23 -12 2 20 -27 17 -16 26
-22 20 -14 -11 11 -8 19 13 41 14 15 21 29 16 33 -5 3 -19 -6 -32 -19z"/>
<path d="M145 240 c10 -11 20 -20 23 -20 3 0 -3 9 -13 20 -10 11 -20 20 -23
20 -3 0 3 -9 13 -20z"/>
<path d="M1099 233 l-24 -28 28 24 c15 14 27 26 27 28 0 8 -8 1 -31 -24z"/>
<path d="M185 190 c10 -11 20 -20 23 -20 3 0 -3 9 -13 20 -10 11 -20 20 -23
20 -3 0 3 -9 13 -20z"/>
<path d="M306 193 c-11 -11 -6 -23 9 -23 8 0 15 4 15 9 0 13 -16 22 -24 14z"/>
<path d="M926 192 c-3 -6 -1 -14 5 -17 15 -10 25 3 12 16 -7 7 -13 7 -17 1z"/>
<path d="M380 150 c-17 -41 -6 -50 14 -11 18 35 19 41 7 41 -5 0 -14 -14 -21
-30z"/>
<path d="M823 168 c-21 -10 -21 -12 -5 -44 8 -19 19 -34 23 -34 16 0 59 23 59
32 0 5 -9 4 -19 -2 -11 -5 -24 -10 -30 -10 -19 0 -12 16 12 29 21 11 21 11 -5
6 -34 -6 -37 8 -5 23 13 6 16 11 7 11 -8 0 -25 -5 -37 -11z"/>
<path d="M1019 153 l-24 -28 28 24 c15 14 27 26 27 28 0 8 -8 1 -31 -24z"/>
<path d="M235 150 c10 -11 20 -20 23 -20 3 0 -3 9 -13 20 -10 11 -20 20 -23
20 -3 0 3 -9 13 -20z"/>
<path d="M437 153 c-12 -21 -16 -63 -7 -63 5 0 10 5 10 10 0 18 18 11 25 -10
3 -11 11 -20 17 -20 5 0 7 7 4 15 -3 9 1 18 9 21 23 9 18 30 -10 42 -30 14
-42 15 -48 5z m53 -21 c0 -14 -11 -21 -26 -15 -21 8 -17 23 6 23 11 0 20 -4
20 -8z"/>
<path d="M764 122 l6 -33 -29 20 c-45 33 -60 28 -51 -15 11 -46 24 -59 18 -16
-5 38 -4 38 29 12 39 -30 54 -26 46 13 -3 17 -10 37 -16 42 -6 7 -8 -1 -3 -23z"/>
<path d="M537 100 c19 -48 34 -50 61 -8 27 42 18 51 -12 13 l-23 -28 -11 31
c-6 18 -15 32 -21 32 -5 0 -2 -18 6 -40z"/>
<path d="M274 121 c7 -11 46 -35 46 -28 0 3 -12 12 -26 22 -15 9 -23 12 -20 6z"/>
<path d="M638 90 c-2 -22 0 -40 4 -40 5 0 8 18 8 40 0 22 -2 40 -4 40 -2 0 -6
-18 -8 -40z"/>
<path d="M960 109 c-22 -18 -22 -19 -3 -10 12 6 25 16 28 21 9 15 3 12 -25
-11z"/>
<path d="M488 23 c7 -3 16 -2 19 1 4 3 -2 6 -13 5 -11 0 -14 -3 -6 -6z"/>
<path d="M758 23 c7 -3 16 -2 19 1 4 3 -2 6 -13 5 -11 0 -14 -3 -6 -6z"/>
<path d="M543 13 c9 -2 25 -2 35 0 9 3 1 5 -18 5 -19 0 -27 -2 -17 -5z"/>
<path d="M683 13 c9 -2 25 -2 35 0 9 3 1 5 -18 5 -19 0 -27 -2 -17 -5z"/>
</g>
</svg>
